<svg width="22" height="23" viewBox="0 0 22 23" fill="none" xmlns="http://www.w3.org/2000/svg">
    <path d="M15.125 0H6.875C3.07863 0 0 3.21856 0 7.1875V15.8125C0 19.7814 3.07863 23 6.875 23H15.125C18.9214 23 22 19.7814 22 15.8125V7.1875C22 3.21856 18.9214 0 15.125 0ZM19.9375 15.8125C19.9375 18.5869 17.7787 20.8438 15.125 20.8438H6.875C4.22125 20.8438 2.0625 18.5869 2.0625 15.8125V7.1875C2.0625 4.41313 4.22125 2.15625 6.875 2.15625H15.125C17.7787 2.15625 19.9375 4.41313 19.9375 7.1875V15.8125Z" fill="black"/>
    <path d="M11 5.75C7.96262 5.75 5.5 8.32456 5.5 11.5C5.5 14.6754 7.96262 17.25 11 17.25C14.0374 17.25 16.5 14.6754 16.5 11.5C16.5 8.32456 14.0374 5.75 11 5.75ZM11 15.0938C9.10525 15.0938 7.5625 13.4809 7.5625 11.5C7.5625 9.51769 9.10525 7.90625 11 7.90625C12.8948 7.90625 14.4375 9.51769 14.4375 11.5C14.4375 13.4809 12.8948 15.0938 11 15.0938Z" fill="black"/>
    <path d="M16.9125 6.08511C17.3172 6.08511 17.6453 5.74207 17.6453 5.31892C17.6453 4.89577 17.3172 4.55273 16.9125 4.55273C16.5077 4.55273 16.1796 4.89577 16.1796 5.31892C16.1796 5.74207 16.5077 6.08511 16.9125 6.08511Z" fill="black"/>
</svg>
