<svg width="18" height="18" viewBox="0 0 18 18" fill="none" xmlns="http://www.w3.org/2000/svg">
    <path d="M14.7393 13.0068H3.26074C3.08537 13.0068 2.92154 12.9202 2.8228 12.7753C1.30833 10.5544 1.19215 6.28223 1.18336 5.64804C1.18282 5.62318 1.18254 5.59805 1.18254 5.57306C1.18254 5.28069 1.4193 5.04352 1.71167 5.04297H1.71277C2.00459 5.04297 2.24176 5.27904 2.24286 5.571C2.24286 5.57457 2.243 5.60588 2.24423 5.66136C2.29092 7.16965 3.53252 8.38213 5.05193 8.38213C6.60086 8.38213 7.86099 7.12199 7.86099 5.57306C7.86099 5.28027 8.09843 5.04297 8.39108 5.04297H9.60878C9.90157 5.04297 10.1389 5.28027 10.1389 5.57306C10.1389 7.12199 11.3991 8.38213 12.9481 8.38213C14.4689 8.38213 15.7113 7.16745 15.7559 5.65724C15.7569 5.60423 15.7571 5.57457 15.7571 5.57114C15.7582 5.27904 15.9953 5.04297 16.2872 5.04297H16.2882C16.5806 5.04352 16.8173 5.28069 16.8173 5.57306C16.8173 5.59819 16.817 5.62318 16.8166 5.64818C16.8077 6.28223 16.6915 10.5545 15.1772 12.7754C15.0785 12.9202 14.9145 13.0068 14.7393 13.0068Z" fill="#FFF780"/>
    <path d="M16.2882 5.04297C16.2879 5.04297 16.2876 5.04297 16.2872 5.04297C15.9954 5.04297 15.7582 5.27904 15.7571 5.571C15.7571 5.57457 15.757 5.60423 15.7559 5.65724C15.7113 7.16731 14.4689 8.38213 12.9481 8.38213C11.3991 8.38213 10.139 7.12199 10.139 5.57306C10.139 5.28027 9.90157 5.04297 9.60892 5.04297H9.00014V13.0067H14.7393C14.9146 13.0067 15.0785 12.92 15.1772 12.7753C16.6917 10.5544 16.8078 6.28209 16.8166 5.64804C16.8172 5.62318 16.8175 5.59805 16.8175 5.57306C16.8173 5.28069 16.5806 5.04352 16.2882 5.04297Z" fill="#FFC02E"/>
    <path d="M9 3.23438C8.05559 3.23438 7.28723 4.00273 7.28723 4.94714C7.28723 5.89156 8.05559 6.65977 9 6.65977C9.94441 6.65977 10.7128 5.89156 10.7128 4.94714C10.7128 4.00273 9.94441 3.23438 9 3.23438Z" fill="#FFC02E"/>
    <path d="M9.00014 3.23438V6.65991C9.94455 6.65977 10.7128 5.89156 10.7128 4.94714C10.7128 4.00273 9.94441 3.23451 9.00014 3.23438Z" fill="#FFA73B"/>
    <path d="M1.71277 4.55615C0.768356 4.55615 0 5.32451 0 6.26892C0 7.21333 0.768356 7.98169 1.71277 7.98169C2.65718 7.98169 3.4254 7.21333 3.4254 6.26892C3.4254 5.32451 2.65718 4.55615 1.71277 4.55615Z" fill="#FFC02E"/>
    <path d="M16.2872 4.55615C15.3428 4.55615 14.5746 5.32451 14.5746 6.26892C14.5746 7.2132 15.3428 7.98155 16.2872 7.98155C17.2316 7.98155 18 7.2132 18 6.26892C18 5.32451 17.2316 4.55615 16.2872 4.55615Z" fill="#FFA73B"/>
    <path d="M14.7393 14.7461H3.26074C2.96796 14.7461 2.73065 14.5088 2.73065 14.216V12.6353H15.2693V14.216C15.2693 14.5088 15.032 14.7461 14.7393 14.7461Z" fill="#FFC02E"/>
    <path d="M9.00014 14.7461H14.7393C15.032 14.7461 15.2693 14.5088 15.2693 14.216V12.6353H9.00014V14.7461Z" fill="#FFA73B"/>
</svg>
