<svg width="21" height="26" viewBox="0 0 21 26" fill="none" xmlns="http://www.w3.org/2000/svg">
    <path d="M10.2012 10.5616C10.4428 10.8031 10.4428 11.1948 10.2012 11.4364L6.15839 15.4793H19.3308C18.9904 14.5687 17.9176 13.6964 16.3188 13.0629C16.083 12.9695 15.9281 12.7415 15.9281 12.4879V4.27266C15.9281 3.93103 16.2051 3.65406 16.5467 3.65406H17.1393C17.6647 3.65406 18.0922 3.2266 18.0922 2.70112C18.0922 2.17564 17.6647 1.74817 17.1393 1.74817H4.10312C3.57769 1.74817 3.15022 2.17564 3.15022 2.70112C3.15022 3.22654 3.57769 3.65406 4.10312 3.65406H4.6957C5.03733 3.65406 5.3143 3.93098 5.3143 4.27266V8.123L8.30928 5.12801C8.55092 4.88643 8.94255 4.88643 9.18418 5.12801C9.42572 5.3696 9.42572 5.76127 9.18418 6.00286L5.3143 9.87274V12.4879C5.3143 12.7416 5.15937 12.9696 4.92354 13.063C3.3248 13.6964 2.25185 14.5687 1.91154 15.4793H4.40865L9.32633 10.5617C9.56797 10.32 9.9596 10.32 10.2012 10.5616Z" fill="#FFD46A"/>
    <path d="M10.0629 26C9.72127 26 9.4443 25.7231 9.4443 25.3814V16.2055H0.618599C0.276969 16.2055 0 15.9285 0 15.5869C0 14.0015 1.27615 12.5503 3.51884 11.5648V4.38014C2.32318 4.36614 1.35471 3.38911 1.35471 2.19015C1.35471 0.982478 2.33723 0 3.54485 0H16.5809C17.7886 0 18.7711 0.982478 18.7711 2.19015C18.7711 3.38911 17.8027 4.36609 16.607 4.38014V11.5648C18.8497 12.5503 20.1258 14.0015 20.1258 15.5869C20.1258 15.9285 19.8488 16.2055 19.5072 16.2055H10.6815V25.3814C10.6815 25.723 10.4045 26 10.0629 26ZM10.0629 14.9683H18.7725C18.4321 14.0577 17.3592 13.1854 15.7605 12.552C15.5246 12.4585 15.3697 12.2305 15.3697 11.9769V3.76169C15.3697 3.42006 15.6467 3.14309 15.9883 3.14309H16.5809C17.1063 3.14309 17.5338 2.71562 17.5338 2.19015C17.5338 1.66467 17.1064 1.2372 16.5809 1.2372H3.54485C3.01942 1.2372 2.5919 1.66467 2.5919 2.19015C2.5919 2.71557 3.01937 3.14309 3.54485 3.14309H4.13743C4.47906 3.14309 4.75603 3.42001 4.75603 3.76169V7.61203L7.75107 4.61704C7.9926 4.37551 8.38428 4.37546 8.62592 4.61704C8.86745 4.85862 8.86745 5.2503 8.62592 5.49189L4.75603 9.36172V11.9769C4.75603 12.2306 4.6011 12.4586 4.36527 12.552C2.76654 13.1855 1.69359 14.0578 1.35328 14.9684H3.85038L8.76807 10.0507C9.0097 9.80915 9.40133 9.8091 9.64297 10.0507C9.8845 10.2923 9.8845 10.6839 9.64291 10.9255L5.60008 14.9684H10.0629V14.9683Z" fill="black"/>
</svg>
