<svg width="21" height="18" viewBox="0 0 21 18" fill="none" xmlns="http://www.w3.org/2000/svg">
    <path d="M20.6757 0.492795C20.4192 0.174978 20.035 0 19.5938 0C19.3539 0 19.0998 0.0511299 18.8387 0.152253L1.06259 7.02687C0.119234 7.3916 -0.00781766 7.93893 0.000353393 8.23273C0.00852444 8.52652 0.166018 9.06574 1.12828 9.37593C1.13405 9.37771 1.13982 9.3795 1.14558 9.38112L4.83282 10.4501L6.82688 16.227C7.09876 17.0146 7.70903 17.5038 8.41975 17.5038C8.86788 17.5038 9.30864 17.3136 9.69444 16.9539L11.9751 14.8264L15.2831 17.5249C15.2834 17.5252 15.2839 17.5254 15.2842 17.5257L15.3156 17.5514C15.3185 17.5536 15.3216 17.5561 15.3245 17.5583C15.6922 17.8473 16.0935 17.9998 16.4856 18C17.2515 18 17.8617 17.4256 18.0393 16.5367L20.9519 1.96647C21.0689 1.38164 20.9708 0.858333 20.6757 0.492795ZM6.06633 10.2471L13.1801 6.56524L8.7506 11.3336C8.67802 11.4117 8.62659 11.5073 8.60128 11.6114L7.74716 15.1164L6.06633 10.2471ZM8.86083 16.0368C8.83135 16.0642 8.80171 16.0887 8.77207 16.1113L9.5645 12.8597L11.006 14.0357L8.86083 16.0368ZM19.746 1.71894L16.8334 16.2893C16.8053 16.4288 16.7158 16.7532 16.4856 16.7532C16.3718 16.7532 16.2289 16.6904 16.0826 16.5763L12.3342 13.5186C12.3337 13.5181 12.333 13.5176 12.3324 13.5173L10.102 11.6977L16.5077 4.80199C16.7127 4.58124 16.7313 4.24313 16.5517 4.00063C16.372 3.75813 16.0462 3.68184 15.7798 3.81981L5.24425 9.27269L1.50687 8.18939L19.2775 1.31688C19.4276 1.25877 19.5324 1.2466 19.5938 1.2466C19.6314 1.2466 19.6984 1.25114 19.7232 1.28214C19.7559 1.32256 19.7976 1.46037 19.746 1.71894Z" fill="white"/>
</svg>
