<svg width="18" height="15" viewBox="0 0 18 15" fill="none" xmlns="http://www.w3.org/2000/svg">
<path d="M17.722 0.410662C17.5022 0.145815 17.1729 0 16.7947 0C16.5891 0 16.3713 0.0426083 16.1474 0.126878L0.910793 5.85573C0.102201 6.15967 -0.00670085 6.61578 0.000302908 6.86061C0.00730667 7.10543 0.142301 7.55478 0.967098 7.81327C0.972041 7.81476 0.976985 7.81625 0.981929 7.8176L4.14241 8.70845L5.85161 13.5225C6.08465 14.1788 6.60774 14.5865 7.21693 14.5865C7.60104 14.5865 7.97883 14.428 8.30952 14.1282L10.2644 12.3553L13.0998 14.6041C13.1001 14.6044 13.1005 14.6045 13.1008 14.6048L13.1277 14.6261C13.1302 14.628 13.1328 14.6301 13.1353 14.6319C13.4504 14.8727 13.7944 14.9999 14.1305 15H14.1306C14.7872 15 15.31 14.5213 15.4623 13.7806L17.9588 1.63873C18.059 1.15137 17.975 0.715278 17.722 0.410662ZM5.19971 8.53924L11.2972 5.47104L7.50051 9.44469C7.4383 9.50976 7.39422 9.58943 7.37252 9.67613L6.64042 12.597L5.19971 8.53924ZM7.595 13.364C7.56973 13.3868 7.54432 13.4073 7.51892 13.4261L8.19814 10.7164L9.43369 11.6964L7.595 13.364ZM16.9251 1.43245L14.4286 13.5744C14.4046 13.6906 14.3278 13.961 14.1305 13.961C14.033 13.961 13.9105 13.9087 13.7851 13.8136L10.5721 11.2655C10.5717 11.2651 10.5712 11.2647 10.5706 11.2644L8.65888 9.74809L14.1494 4.00166C14.3252 3.8177 14.3411 3.53594 14.1872 3.33386C14.0331 3.13177 13.7539 3.0682 13.5255 3.18317L4.49507 7.72724L1.29161 6.82449L16.5236 1.0974C16.6522 1.04897 16.7421 1.03883 16.7947 1.03883C16.8269 1.03883 16.8843 1.04262 16.9056 1.06845C16.9336 1.10213 16.9693 1.21697 16.9251 1.43245Z" fill="black"/>
</svg>
