<svg width="26" height="23" viewBox="0 0 26 23" fill="none" xmlns="http://www.w3.org/2000/svg">
    <path d="M25.5985 0.629682C25.2809 0.223583 24.8052 0 24.2589 0C23.962 0 23.6474 0.0653327 23.3241 0.194546L1.31559 8.97878C0.147623 9.44482 -0.00967901 10.1442 0.000437534 10.5196C0.0105541 10.895 0.205546 11.584 1.39692 11.9804C1.40406 11.9826 1.4112 11.9849 1.41834 11.987L5.98349 13.353L8.45232 20.7345C8.78895 21.7408 9.54451 22.366 10.4245 22.366C10.9793 22.366 11.525 22.1229 12.0026 21.6633L14.8263 18.9448L18.922 22.3929C18.9224 22.3933 18.923 22.3935 18.9234 22.394L18.9622 22.4267C18.9658 22.4296 18.9696 22.4327 18.9731 22.4357C19.4284 22.8048 19.9253 22.9998 20.4107 23H20.4109C21.3593 23 22.1144 22.266 22.3344 21.1302L25.9405 2.51271C26.0853 1.76543 25.9639 1.09676 25.5985 0.629682ZM7.51069 13.0935L16.3182 8.38892L10.8341 14.4819C10.7442 14.5816 10.6805 14.7038 10.6492 14.8367L9.59172 19.3154L7.51069 13.0935ZM10.9706 20.4914C10.9341 20.5265 10.8974 20.5578 10.8607 20.5866L11.8418 16.4319L13.6264 17.9345L10.9706 20.4914ZM24.4474 2.19642L20.8413 20.8142C20.8066 20.9923 20.6957 21.4069 20.4107 21.4069C20.2698 21.4069 20.0929 21.3267 19.9118 21.1808L15.2709 17.2737C15.2703 17.2731 15.2695 17.2725 15.2687 17.2721L12.5073 14.9471L20.4381 6.13588C20.692 5.85381 20.715 5.42178 20.4926 5.11192C20.27 4.80205 19.8668 4.70457 19.5369 4.88087L6.49288 11.8484L1.86565 10.4642L23.8674 1.68268C24.0532 1.60843 24.183 1.59287 24.2589 1.59287C24.3056 1.59287 24.3885 1.59868 24.4192 1.63829C24.4597 1.68994 24.5113 1.86603 24.4474 2.19642Z" fill="black"/>
</svg>
