<svg width="25" height="19" viewBox="0 0 25 19" fill="none" xmlns="http://www.w3.org/2000/svg">
    <path d="M15.7745 8.89789L10.2515 5.87589C9.93389 5.70213 9.55852 5.70861 9.24724 5.89305C8.93577 6.07769 8.75 6.40384 8.75 6.76586V12.758C8.75 13.1183 8.93463 13.4439 9.244 13.6287C9.40555 13.7252 9.58465 13.7736 9.76413 13.7736C9.92855 13.7736 10.0933 13.733 10.245 13.6514L15.7682 10.6815C16.0961 10.505 16.3008 10.1642 16.3023 9.79167C16.3036 9.41917 16.1015 9.0768 15.7745 8.89789ZM10.215 12.0042V7.52574L14.3429 9.78443L10.215 12.0042Z" fill="black"/>
    <path d="M24.816 4.49645L24.8149 4.48501C24.7937 4.28378 24.583 2.49393 23.7128 1.58355C22.7071 0.512764 21.5669 0.382683 21.0185 0.320312C20.9731 0.315163 20.9315 0.310394 20.8944 0.305435L20.8507 0.300858C17.5456 0.0605316 12.5543 0.0277252 12.5043 0.0275345L12.5 0.0273438L12.4956 0.0275345C12.4456 0.0277252 7.45427 0.0605316 4.11948 0.300858L4.07542 0.305435C4.03994 0.310204 4.00084 0.31459 3.9583 0.31955C3.41624 0.382111 2.28824 0.512383 1.27964 1.62189C0.450895 2.52254 0.211333 4.27406 0.186729 4.47089L0.183868 4.49645C0.176429 4.58018 0 6.57355 0 8.57475V10.4455C0 12.4467 0.176429 14.44 0.183868 14.524L0.185203 14.5365C0.206374 14.7345 0.416945 16.4916 1.28307 17.4023C2.22873 18.4373 3.42444 18.5742 4.0676 18.6478C4.16926 18.6595 4.2568 18.6694 4.3165 18.6799L4.3743 18.6879C6.28259 18.8695 12.2657 18.9589 12.5194 18.9625L12.527 18.9627L12.5347 18.9625C12.5846 18.9624 17.5758 18.9296 20.8808 18.6892L20.9245 18.6846C20.9663 18.6791 21.0132 18.6742 21.0647 18.6688C21.6037 18.6116 22.7256 18.4928 23.7203 17.3983C24.549 16.4975 24.7888 14.746 24.8132 14.5493L24.816 14.5238C24.8235 14.4398 25.0001 12.4467 25.0001 10.4455V8.57475C24.9999 6.57355 24.8235 4.58038 24.816 4.49645ZM23.5349 10.4455C23.5349 12.2977 23.3731 14.2052 23.3579 14.3803C23.2957 14.8627 23.043 15.9709 22.6392 16.4098C22.0166 17.0947 21.3771 17.1626 20.9102 17.212C20.8537 17.2179 20.8015 17.2236 20.7542 17.2295C17.5575 17.4607 12.7546 17.4962 12.5333 17.4975C12.2852 17.4939 6.38959 17.4037 4.53947 17.2318C4.44468 17.2164 4.34225 17.2045 4.2343 17.1923C3.6867 17.1296 2.93711 17.0438 2.36072 16.4098L2.34717 16.3953C1.95045 15.9819 1.70497 14.9457 1.6426 14.3861C1.63097 14.2537 1.46503 12.3236 1.46503 10.4455V8.57475C1.46503 6.72462 1.62639 4.81918 1.64203 4.64046C1.71623 4.07226 1.97372 3.03123 2.36072 2.61047C3.00235 1.90475 3.67888 1.82655 4.12634 1.77486C4.16907 1.7699 4.20893 1.76532 4.24574 1.76055C7.48898 1.52824 12.3264 1.49371 12.5 1.49238C12.6735 1.49352 17.5092 1.52824 20.7236 1.76055C20.7631 1.76551 20.8062 1.77047 20.8526 1.77581C21.3128 1.82826 22.0084 1.90761 22.6468 2.58853L22.6527 2.59483C23.0495 3.00815 23.2949 4.06253 23.3573 4.6334C23.3684 4.75833 23.5349 6.69257 23.5349 8.57475V10.4455Z" fill="black"/>
</svg>
