<svg width="23" height="19" viewBox="0 0 23 19" fill="none" xmlns="http://www.w3.org/2000/svg">
    <path d="M15.0402 8.46643L9.95892 5.68619C9.66675 5.52633 9.32142 5.5323 9.03504 5.70198C8.74849 5.87184 8.57758 6.17191 8.57758 6.50496V12.0177C8.57758 12.3492 8.74744 12.6487 9.03206 12.8188C9.18068 12.9076 9.34546 12.9521 9.51058 12.9521C9.66184 12.9521 9.81345 12.9148 9.95295 12.8396L15.0344 10.1073C15.336 9.94499 15.5243 9.63142 15.5257 9.28871C15.5269 8.94601 15.3409 8.63103 15.0402 8.46643ZM9.9254 11.3242V7.20406L13.723 9.28205L9.9254 11.3242Z" fill="white"/>
    <path d="M22.8308 4.89674L22.8297 4.88621C22.8102 4.70108 22.6163 3.05441 21.8158 2.21687C20.8905 1.23174 19.8415 1.11207 19.337 1.05469C19.2953 1.04995 19.257 1.04556 19.2228 1.041L19.1826 1.03679C16.142 0.815689 11.55 0.785507 11.504 0.785332L11.5 0.785156L11.4959 0.785332C11.4499 0.785507 6.85793 0.815689 3.78992 1.03679L3.74938 1.041C3.71674 1.04539 3.68077 1.04942 3.64164 1.05399C3.14294 1.11154 2.10518 1.23139 1.17726 2.25214C0.414824 3.08073 0.194427 4.69213 0.17179 4.87322L0.169158 4.89674C0.162315 4.97377 0 6.80767 0 8.64877V10.3698C0 12.2109 0.162315 14.0448 0.169158 14.122L0.170387 14.1336C0.189864 14.3158 0.383589 15.9323 1.18042 16.7701C2.05043 17.7223 3.15049 17.8483 3.74219 17.916C3.83572 17.9267 3.91626 17.9358 3.97118 17.9455L4.02435 17.9529C5.77998 18.1199 11.2845 18.2022 11.5179 18.2055L11.5249 18.2057L11.5319 18.2055C11.5779 18.2054 16.1697 18.1752 19.2103 17.9541L19.2505 17.9499C19.289 17.9448 19.3321 17.9402 19.3795 17.9353C19.8754 17.8827 20.9075 17.7733 21.8226 16.7665C22.5851 15.9377 22.8057 14.3263 22.8281 14.1454L22.8308 14.1219C22.8376 14.0447 23.0001 12.2109 23.0001 10.3698V8.64877C22.9999 6.80767 22.8376 4.97395 22.8308 4.89674ZM21.6521 10.3698C21.6521 12.0739 21.5033 13.8288 21.4892 13.9899C21.432 14.4337 21.1995 15.4532 20.8281 15.857C20.2553 16.4871 19.6669 16.5496 19.2374 16.595C19.1854 16.6005 19.1373 16.6057 19.0938 16.6112C16.1529 16.8238 11.7342 16.8565 11.5307 16.8577C11.3024 16.8544 5.87843 16.7714 4.17631 16.6133C4.0891 16.5991 3.99487 16.5882 3.89555 16.577C3.39176 16.5192 2.70215 16.4403 2.17186 15.857L2.1594 15.8436C1.79441 15.4634 1.56857 14.51 1.51119 13.9952C1.50049 13.8734 1.34783 12.0977 1.34783 10.3698V8.64877C1.34783 6.94665 1.49628 5.19364 1.51067 5.02922C1.57893 4.50648 1.81582 3.54873 2.17186 3.16163C2.76216 2.51237 3.38457 2.44042 3.79623 2.39287C3.83554 2.38831 3.87222 2.38409 3.90608 2.37971C6.88987 2.16598 11.3403 2.13422 11.5 2.13299C11.6596 2.13404 16.1085 2.16598 19.0658 2.37971C19.1021 2.38427 19.1417 2.38883 19.1844 2.39375C19.6078 2.442 20.2478 2.515 20.8351 3.14145L20.8405 3.14724C21.2055 3.5275 21.4313 4.49753 21.4887 5.02273C21.4989 5.13766 21.6521 6.91717 21.6521 8.64877V10.3698Z" fill="white"/>
</svg>
